# xmcd
#
# Track frame offsets: 
#        150
#        20304
#        35225
#        46534
#        53094
#        74291
#        91356
#        108265
#        123303
#        136882
#        146741
#        158928
#        176479
#        192116
#        206971
#
# Disc length: 3014 seconds
#
# Revision: 0
# Processed by: cddbd v1.5.2PL0 Copyright (c) Steve Scherf et al.
# Submitted via: ExactAudioCopy v0.95a5
#
DISCID=d10bc40f
DTITLE=Various Artist - 15 песен Александра Иванова
DYEAR=2008
DGENRE=
TTITLE0=Максим Леонидов - Хандра
TTITLE1=Ирина Богушевская - В час далёкий от рассвета
TTITLE2=Дмитрий Богданов - Подросток
TTITLE3=Александр Иванов - Ворон
TTITLE4=Владимир Качан - Саша моряк
TTITLE5=Лидия Чебоксарова - Чудо
TTITLE6=Юрий Мазихин - Предчувствие
TTITLE7=Петр Маркин - Мартовский кот
TTITLE8=Елена Фролова - Разыгрался мой сон
TTITLE9=Юрий Гальцев - Дрова
TTITLE10=Андрей Козловский - В жарком тумане дня
TTITLE11=Алексей Кортнев - Восьмой причал
TTITLE12=Леонид Серебренников - Ах не плыть по голубому морю
TTITLE13=Кинер и Цитриняк - Потанцуем на дороге
TTITLE14=Алексей Иващенко - Блюз Чеширского кота
EXTD=
EXTT0=
EXTT1=
EXTT2=
EXTT3=
EXTT4=
EXTT5=
EXTT6=
EXTT7=
EXTT8=
EXTT9=
EXTT10=
EXTT11=
EXTT12=
EXTT13=
EXTT14=
PLAYORDER=
